# xmcd
#
# Track frame offsets:
#	150
#	13963
#	28688
#	43793
#	59861
#	76507
#	90578
#	106387
#	121075
#	136572
#	151307
#	166628
#	181230
#	195178
#	211280
#	225324
#	242571
#	258315
#	277448
#
# Disc length: 3871 seconds
#
# Revision: 1
# Processed by: cddbd v1.5.2PL0 Copyright (c) Steve Scherf et al.
# Submitted via: audiograbber 1.82.02
#
DISCID=ef0f1d13
DTITLE=Various Artist - Country Radio - February 2016
DYEAR=2016
DGENRE=Country
TTITLE0=Eric Paslay - High Class
TTITLE1=Josh Thompson - Same Ol' Plain Ol' Me
TTITLE2=Chelsea Bain - Power Of A Woman
TTITLE3=Kali Rose (Ft. Gary Chapman) - Kids
TTITLE4=Sarah Dunn Band - Backwoods Party
TTITLE5=Cole Swindell - You Should Be Here
TTITLE6=Josh Abbott Band - Amnesia
TTITLE7=Kari Holmes - Something New
TTITLE8=Carrie Underwood - Heartbeat (Album Ver)
TTITLE9=David Fanning - What's Next
TTITLE10=Old Dominion - Snapback (Album Ver)
TTITLE11=Maren Morris - My Church
TTITLE12=Jake Worthington - Just Keep Falling In Love
TTITLE13=Big and Rich (Ft. Tim McGraw) - Lovin' Lately
TTITLE14=Drake White - Livin' The Dream
TTITLE15=Jennifer Nettles - Unlove You
TTITLE16=Drew Baldridge - Dance With Ya
TTITLE17=Corey Farlow - Burnin' Me Up
TTITLE18=Maggie Baugh - Midnight Muddin'
EXTD=
EXTT0=
EXTT1=
EXTT2=
EXTT3=
EXTT4=
EXTT5=
EXTT6=
EXTT7=
EXTT8=
EXTT9=
EXTT10=
EXTT11=
EXTT12=
EXTT13=
EXTT14=
EXTT15=
EXTT16=
EXTT17=
EXTT18=
PLAYORDER=
